<svg width="65" height="65" viewBox="0 0 65 65" fill="none" xmlns="http://www.w3.org/2000/svg">
<g id="fluent-emoji-high-contrast:party-popper">
<g id="Group">
<path id="Vector" d="M33.7774 26.4896C33.5513 26.5641 33.3197 26.6189 33.0827 26.6541C32.7063 26.7489 32.3251 26.8166 31.9391 26.8572C31.7554 27.7416 31.279 28.5382 30.5868 29.1185C29.8947 29.6988 29.0272 30.029 28.1244 30.0557C27.2216 30.0825 26.3361 29.8043 25.6108 29.266C24.8855 28.7277 24.3628 27.9607 24.1269 27.0888C23.6841 25.4922 23.4566 23.8429 23.4505 22.1854C22.4805 20.8708 21.6831 19.4373 21.078 17.9197L21.0516 17.8588L20.8343 17.3307L20.556 16.6279C20.2587 15.8579 19.9777 15.0818 19.713 14.3L19.6582 14.1376L19.6379 14.0725C19.4998 13.6663 19.3616 13.2154 19.2316 12.7604C19.1544 12.4977 19.0806 12.2322 19.0102 11.9641C18.6763 10.7752 18.4573 9.55694 18.3562 8.32614V8.26521C18.3209 7.25779 18.6615 6.27325 19.3117 5.50294C19.9619 4.73262 20.8753 4.23154 21.8743 4.09708C22.6644 3.99569 23.4668 4.13366 24.1777 4.49317C24.8021 4.80931 25.3341 5.28136 25.7224 5.86357C26.1107 6.44579 26.3419 7.11842 26.3938 7.8163V7.83661C26.552 9.0787 26.8449 10.2999 27.2673 11.4786C27.4704 12.088 27.6735 12.6669 27.8766 13.1849C28.2856 12.975 28.7081 12.799 29.1441 12.6568L29.1827 12.6385C31.0118 12.057 32.9963 12.2196 34.7063 13.091C36.4163 13.9625 37.7141 15.4726 38.3185 17.2943C38.9228 19.1159 38.7851 21.1023 37.9351 22.8231C37.0851 24.5439 35.5913 25.8604 33.7774 26.4875V26.4896ZM26.0871 26.5525C26.1952 26.9536 26.4263 27.3107 26.7478 27.5736C27.0694 27.8365 27.4653 27.992 27.8798 28.0182C28.2943 28.0444 28.7066 27.9401 29.0587 27.7198C29.4109 27.4995 29.6851 27.1744 29.8429 26.7902C29.4569 26.7211 29.0785 26.6236 28.7074 26.4977C27.5893 26.1018 26.5611 25.4872 25.6829 24.6899C25.7844 25.3182 25.9192 25.9391 26.0871 26.5525ZM36.4668 17.8994C36.2496 17.2444 35.9054 16.6387 35.454 16.1168C35.0026 15.5948 34.4527 15.167 33.8359 14.8576C33.2191 14.5482 32.5473 14.3634 31.859 14.3138C31.1708 14.2641 30.4795 14.3506 29.8246 14.5682L29.7637 14.5885C29.3669 14.7158 28.9871 14.881 28.6241 15.0841L28.6668 15.1836V15.208C29.1202 16.2655 29.7371 17.245 30.4949 18.1107L30.5274 18.1432L30.5782 18.2021C30.6432 18.2784 30.7109 18.3522 30.7813 18.4235L30.9844 18.3463L31.0454 18.326C31.3686 18.2191 31.7211 18.2446 32.0256 18.3968C32.3301 18.5491 32.5619 18.8158 32.6704 19.1385C32.7319 19.2956 32.7583 19.4643 32.7478 19.6327C32.7373 19.8011 32.69 19.9652 32.6094 20.1135C32.4876 20.3735 32.2804 20.5827 32.0224 20.7066C31.9547 20.7229 31.887 20.7418 31.8193 20.7635C31.6351 20.8298 31.4462 20.8711 31.2526 20.8874C30.9434 20.9057 30.6354 20.8352 30.3649 20.6843C30.2227 20.6111 30.0873 20.5272 29.9587 20.4324C29.6161 20.1643 29.306 19.863 29.0284 19.5285L29.008 19.5082C28.0998 18.4861 27.3612 17.3251 26.8204 16.0693C26.7574 15.9251 26.6978 15.7795 26.6416 15.6326V15.6021L26.6213 15.5533C26.5083 15.2886 26.3986 15.0225 26.2923 14.755L26.2232 14.5783L26.1541 14.3996C25.2929 12.3379 24.6916 10.1766 24.3605 7.96661C24.3416 7.72015 24.2806 7.48385 24.1777 7.25771C24.06 7.00623 23.8921 6.78155 23.6841 6.59755C23.2904 6.24752 22.774 6.06783 22.248 6.09786C21.8113 6.12224 21.3949 6.29286 21.0699 6.58536C20.8427 6.78461 20.6628 7.03206 20.5433 7.30967C20.4238 7.58727 20.3678 7.88804 20.3793 8.19005C20.401 8.51505 20.4382 8.85359 20.491 9.20568C20.6535 10.2078 20.881 11.1943 21.1735 12.1652L21.2588 12.4496C21.6286 13.6597 22.0453 14.855 22.508 16.0327L22.5751 16.2033C22.6901 16.4949 22.8079 16.7854 22.9285 17.0747L22.959 17.1479L23.1337 17.5704C23.8474 19.2278 24.8166 20.7631 26.0059 22.1204C26.9576 23.3307 28.2546 24.2232 29.7251 24.6797C30.415 24.8661 31.1347 24.9157 31.8437 24.826C32.1331 24.7897 32.4196 24.7327 32.7009 24.6554C32.8487 24.6409 32.9944 24.6102 33.1355 24.564C33.792 24.3453 34.3989 23.9993 34.9216 23.546C35.4443 23.0927 35.8726 22.5408 36.182 21.9219C36.4913 21.303 36.6757 20.6292 36.7246 19.939C36.7734 19.2488 36.6859 18.5557 36.4668 17.8994ZM40.5029 8.08442C40.7155 8.23513 40.9562 8.34168 41.2107 8.39778C41.4652 8.45388 41.7284 8.45838 41.9847 8.41104C42.241 8.36369 42.4852 8.26545 42.7029 8.12212C42.9205 7.97879 43.1073 7.79328 43.252 7.57656C43.3968 7.35983 43.4966 7.11629 43.5456 6.86032C43.5947 6.60435 43.5919 6.34114 43.5375 6.08627C43.483 5.83139 43.3781 5.59001 43.2288 5.37639C43.0795 5.16277 42.8889 4.98125 42.6682 4.84255C42.2383 4.5723 41.7199 4.48043 41.2232 4.58648C40.7266 4.69253 40.291 4.98813 40.0089 5.41041C39.7268 5.8327 39.6206 6.34836 39.7129 6.84773C39.8052 7.3471 40.0886 7.79078 40.5029 8.08442ZM16.3148 46.3654C16.1 46.2128 15.8568 46.1049 15.5997 46.048C15.3425 45.9911 15.0765 45.9863 14.8174 46.034C14.5584 46.0816 14.3115 46.1807 14.0914 46.3255C13.8713 46.4702 13.6825 46.6575 13.5361 46.8765C13.3896 47.0955 13.2886 47.3415 13.2389 47.6002C13.1893 47.8589 13.192 48.1249 13.2469 48.3825C13.3018 48.6402 13.4078 48.8841 13.5586 49.1001C13.7095 49.316 13.9021 49.4995 14.1251 49.6397C14.5593 49.9128 15.083 50.0057 15.5847 49.8988C16.0864 49.7919 16.5266 49.4935 16.8117 49.0671C17.0969 48.6406 17.2045 48.1198 17.1117 47.6153C17.0189 47.1108 16.733 46.6624 16.3148 46.3654ZM14.2855 18.1025C13.6606 18.1025 13.0613 17.8543 12.6194 17.4124C12.1775 16.9705 11.9293 16.3712 11.9293 15.7463C11.9293 15.1214 12.1775 14.5221 12.6194 14.0802C13.0613 13.6383 13.6606 13.39 14.2855 13.39C14.9105 13.39 15.5098 13.6383 15.9517 14.0802C16.3935 14.5221 16.6418 15.1214 16.6418 15.7463C16.6418 16.3712 16.3935 16.9705 15.9517 17.4124C15.5098 17.8543 14.9105 18.1025 14.2855 18.1025ZM51.4899 17.7044C51.747 17.8841 52.0374 18.0106 52.344 18.0765C52.6506 18.1425 52.9673 18.1466 53.2755 18.0886C53.5837 18.0305 53.8772 17.9116 54.1389 17.7386C54.4005 17.5657 54.625 17.3422 54.7991 17.0814C54.9733 16.8206 55.0936 16.5276 55.1531 16.2197C55.2125 15.9117 55.2099 15.595 55.1454 15.2881C55.0808 14.9812 54.9557 14.6903 54.7772 14.4323C54.5988 14.1744 54.3706 13.9547 54.1062 13.7861C53.5863 13.4392 52.9499 13.313 52.337 13.4353C51.7241 13.5576 51.1848 13.9183 50.8379 14.4382C50.491 14.958 50.3647 15.5944 50.487 16.2074C50.6093 16.8203 50.9701 17.3595 51.4899 17.7065" fill="black"/>
<path id="Vector_2" d="M5.28926 30.2453C5.54211 30.3627 5.8157 30.4289 6.09425 30.4401C6.37279 30.4512 6.65079 30.4071 6.91222 30.3103C9.06653 29.5051 11.3908 29.2632 13.6647 29.6077C15.9386 29.9521 18.087 30.8715 19.9061 32.2786C15.1794 32.4005 10.5583 33.6883 6.45316 36.0344C5.44936 36.601 4.71028 37.5415 4.39705 38.6508C4.08382 39.7601 4.22185 40.9482 4.78104 41.9562C5.34024 42.9641 6.27525 43.7101 7.38221 44.0315C8.48917 44.3529 9.67831 44.2237 10.6904 43.6719C13.1203 42.2613 15.8229 41.3844 18.6181 41.0997C21.4134 40.8149 24.2373 41.1288 26.9018 42.0205C26.2213 43.3266 25.7114 44.716 25.3885 46.1541C25.2727 46.5827 25.2158 47.0275 25.2179 47.4703C25.1485 48.0317 25.1996 48.6014 25.3678 49.1415C25.5359 49.6816 25.8172 50.1797 26.1929 50.6025C26.3554 50.765 26.5348 50.9065 26.7311 51.0271C27.3313 51.6036 28.069 52.0168 28.8741 52.2275L54.7482 59.1541C55.5824 59.3767 56.4605 59.3756 57.2942 59.151C58.1279 58.9264 58.8878 58.4862 59.4973 57.8747C60.1068 57.2631 60.5444 56.5018 60.7662 55.6673C60.988 54.8329 60.9861 53.9548 60.7607 53.1213L53.8341 27.2432C53.6214 26.429 53.2015 25.6837 52.6154 25.0799C52.4989 24.8916 52.3635 24.719 52.2091 24.5619C51.7992 24.196 51.3172 23.9199 50.7943 23.7513C50.2713 23.5827 49.7188 23.5253 49.1724 23.5828C48.6788 23.5707 48.1852 23.6336 47.7099 23.7697C46.4481 24.0538 45.2248 24.4875 44.0658 25.0616C43.4971 21.771 44.0455 18.3828 45.6279 15.4416C45.9268 14.884 45.9921 14.2305 45.8092 13.6248C45.6264 13.0191 45.2104 12.5109 44.6529 12.2119C44.0953 11.9129 43.4418 11.8477 42.8361 12.0305C42.2304 12.2134 41.7222 12.6293 41.4232 13.1869C39.0485 17.6128 38.45 22.7774 39.7494 27.6291C38.1724 28.7481 36.6732 29.9731 35.2624 31.2955C34.8345 30.8617 34.254 30.6122 33.6447 30.6004C33.0355 30.5886 32.4457 30.8153 32.0013 31.2322C31.5568 31.649 31.2929 32.2231 31.2657 32.8318C31.2386 33.4406 31.4504 34.0359 31.856 34.4907C31.5662 34.3755 31.2723 34.2652 30.9744 34.1596C28.2974 33.1975 25.5056 32.5911 22.6707 32.3558C22.9204 32.1554 23.1218 31.9014 23.2599 31.6125C23.398 31.3236 23.4693 31.0074 23.4686 30.6872C23.4678 30.367 23.3949 30.0511 23.2554 29.763C23.1159 29.4748 22.9132 29.2217 22.6625 29.0225C20.265 27.1264 17.4186 25.8814 14.3987 25.4081C11.3789 24.9348 8.28801 25.2492 5.42535 26.321C5.03301 26.4696 4.69334 26.7308 4.44899 27.0719C4.20465 27.4129 4.06654 27.8186 4.05199 28.2379C4.03745 28.6572 4.14714 29.0714 4.36727 29.4286C4.58739 29.7857 4.90816 30.0699 5.28926 30.2453ZM41.6243 45.1892L41.9919 44.8744L41.6547 45.1628L41.6243 45.1892ZM56.7652 57.1899C56.2777 57.3219 55.7618 57.3219 55.2722 57.1919L54.0982 56.8852C55.7583 55.6813 57.2497 54.2603 58.5324 52.6602L58.7985 53.6555C58.9972 54.3938 58.8947 55.1808 58.5134 55.8436C58.1322 56.5063 57.5033 56.9905 56.7652 57.1899ZM53.5233 52.0975C52.0772 53.4302 50.4504 54.5523 48.691 55.4308L43.0075 53.9094C45.2193 52.6027 47.2829 51.0601 49.1622 49.3086C51.6198 46.9874 53.7652 44.3566 55.5444 41.4822L57.1572 47.513C56.1689 49.2054 54.9454 50.7489 53.5233 52.0975ZM46.3794 46.3389C43.6686 48.8418 40.5586 50.874 37.1779 52.3514L32.118 50.9946C36.7455 49.1657 40.9139 46.3411 44.3279 42.7213C45.5245 41.5334 46.653 40.2788 47.7079 38.9635C48.175 38.3839 48.6111 37.8063 49.016 37.2308C50.5343 35.1775 51.7467 32.9148 52.6154 30.5135L54.0433 35.9186C52.1032 39.8047 49.511 43.3292 46.3794 46.3389ZM6.70098 38.3967C6.90223 38.1571 7.14775 37.9585 7.4241 37.8117H7.43426C10.8767 35.8426 14.7144 34.6647 18.6688 34.3636C22.6232 34.0625 26.5951 34.6458 30.296 36.071L30.686 36.2132L30.6677 36.2335C34.5168 37.7732 37.953 40.191 40.7021 43.2941C40.176 43.7552 39.6661 44.1777 39.1604 44.5839C38.4514 45.1527 37.7385 45.6788 36.926 46.2089C34.7094 43.6578 31.8996 41.6907 28.7441 40.4808C25.6673 39.2739 22.3585 38.7738 19.0624 39.0174C15.7663 39.261 12.5671 40.2422 9.70113 41.8885C9.22835 42.1721 8.67051 42.2793 8.12628 42.1912C7.58205 42.1031 7.08652 41.8253 6.72735 41.4071C6.36818 40.9888 6.16853 40.457 6.1637 39.9057C6.15887 39.3544 6.34919 38.8212 6.70098 38.3967Z" fill="black"/>
</g>
</g>
</svg>
