<svg width="114" height="114" viewBox="0 0 114 114" fill="none" xmlns="http://www.w3.org/2000/svg">
<g id="Clip path group">
<mask id="mask0_131_1151" style="mask-type:luminance" maskUnits="userSpaceOnUse" x="0" y="0" width="114" height="114">
<g id="116ace9452">
<path id="Vector" d="M0 0H114V114H0V0Z" fill="white"/>
</g>
</mask>
<g mask="url(#mask0_131_1151)">
<g id="Group">
<path id="Vector_2" d="M113.099 0.046875H27.1772C26.6772 0.046875 26.2761 0.453126 26.2761 0.947917V38.9531C24.4845 43.3073 23.672 48.0312 23.922 52.8646C24.1147 56.5417 24.922 60.0885 26.2761 63.401V76.4115C25.4845 76.4219 24.7032 76.7344 24.1355 77.3594L1.7553 102.01C0.599046 103.286 0.0105054 104.927 0.0990467 106.641C0.192797 108.359 0.948005 109.932 2.23446 111.083C3.46884 112.182 5.01571 112.724 6.55738 112.724C8.32301 112.724 10.0886 112.01 11.3595 110.609L26.2709 94.1875V113.052C26.2709 113.552 26.6772 113.953 27.1772 113.953H113.099C113.594 113.953 114 113.552 114 113.052V0.947917C114 0.453126 113.594 0.046875 113.099 0.046875ZM27.9897 39.5312C28.0001 39.5104 28.0105 39.4896 28.0157 39.4688C29.349 36.2812 31.2293 33.3073 33.6303 30.6667C39.7293 23.9479 48.1615 20.5312 56.6303 20.5312C64.0105 20.5312 71.4115 23.1302 77.3126 28.3958C81.0938 31.7708 83.9116 35.9167 85.6251 40.5104C85.6303 40.526 85.6355 40.5365 85.6355 40.5469C86.7032 43.4115 87.3386 46.4531 87.5053 49.5885C87.9324 57.7604 85.1251 65.6146 79.6043 71.6927C68.1928 84.2656 48.5938 85.2812 35.9168 73.9635C32.4272 70.849 29.7553 67.0729 28.0157 62.8906C28.0105 62.875 28.0053 62.8542 27.9949 62.8385C26.6876 59.6771 25.9115 56.2865 25.7293 52.7708C25.4897 48.1719 26.2709 43.6719 27.9897 39.5312ZM52.448 83.3698C53.5938 83.5156 54.7501 83.599 55.9063 83.6198V103.745H52.448V83.3698ZM29.672 78.401L33.5053 74.1771C33.8959 74.5677 34.297 74.9427 34.7136 75.3125C35.1251 75.6823 35.5418 76.0312 35.9688 76.375L32.1355 80.599L29.672 78.401ZM28.0834 67.1146C29.2501 69.1615 30.6407 71.0938 32.2553 72.8698L28.323 77.1979L28.2657 77.1458C28.2084 77.0938 28.1407 77.0573 28.0834 77.0104V67.1146ZM10.0261 109.391C8.30217 111.286 5.34905 111.443 3.43759 109.734C2.51571 108.911 1.96884 107.776 1.90634 106.552C1.84384 105.323 2.26571 104.141 3.09384 103.224L25.474 78.5781C25.698 78.3333 26.0053 78.2083 26.3126 78.2083C26.5782 78.2083 26.849 78.3021 27.0626 78.4948L27.7865 79.1406L31.599 82.5469L32.323 83.1927C32.547 83.3906 32.6772 83.6615 32.6928 83.9531C32.7084 84.2448 32.6043 84.526 32.4063 84.7448L10.0261 109.391ZM112.193 112.146H28.0834V92.1927L33.7449 85.9583C34.2709 85.3802 34.5365 84.6354 34.4949 83.8594C34.4532 83.0781 34.1095 82.3646 33.5261 81.8438L33.4845 81.8021L37.4168 77.474C41.4428 80.375 45.9688 82.2448 50.6407 83.0938V103.745H47.0626V88.1667C47.0626 87.6667 46.6563 87.2604 46.1563 87.2604H40.8907C40.3907 87.2604 39.9845 87.6667 39.9845 88.1667V103.745H35.4845C34.9845 103.745 34.5782 104.151 34.5782 104.651C34.5782 105.151 34.9845 105.552 35.4845 105.552H102.761C103.261 105.552 103.667 105.151 103.667 104.651C103.667 104.151 103.261 103.745 102.761 103.745H100.328V73.5938C100.328 73.099 99.922 72.6927 99.422 72.6927H94.1563C93.6563 72.6927 93.2501 73.099 93.2501 73.5938V103.745H89.672V81.6042C89.672 81.1094 89.2657 80.7031 88.7709 80.7031H83.5001C83.0001 80.7031 82.599 81.1094 82.599 81.6042V103.745H79.0209V88.1667C79.0209 87.6667 78.6147 87.2604 78.1147 87.2604H72.849C72.349 87.2604 71.9428 87.6667 71.9428 88.1667V103.745H68.3699V98.3802C68.3699 97.8802 67.9636 97.474 67.4636 97.474H62.198C61.698 97.474 61.2918 97.8802 61.2918 98.3802V103.745H57.7136V83.6094C66.297 83.3177 74.7553 79.724 80.9428 72.9115C85.4897 67.901 88.2866 61.7604 89.0991 55.2083H99.448C99.948 55.2083 100.349 54.8073 100.349 54.3073C100.349 53.8073 99.948 53.401 99.448 53.401H89.2709C89.3595 52.1094 89.3803 50.8073 89.3126 49.4948C89.2866 49.0417 89.2501 48.5938 89.2084 48.1458H99.448C99.948 48.1458 100.354 47.7448 100.354 47.2448C100.354 46.7448 99.948 46.3385 99.448 46.3385H88.9897C88.7188 44.5417 88.297 42.7865 87.7345 41.0833H99.448C99.948 41.0833 100.349 40.6771 100.349 40.1823C100.349 39.6823 99.948 39.276 99.448 39.276H87.0834C86.3595 37.4479 85.4688 35.6875 84.4168 34.0208H99.448C99.948 34.0208 100.349 33.6146 100.349 33.1146C100.349 32.6198 99.948 32.2135 99.448 32.2135H83.1928C81.8386 30.3542 80.2813 28.6198 78.5209 27.0469C77.9949 26.5781 77.4532 26.1354 76.9063 25.7031H99.448C99.948 25.7031 100.349 25.3021 100.349 24.8021C100.349 24.3021 99.948 23.8958 99.448 23.8958H74.3647C61.1095 15.4062 43.1824 17.4583 32.2918 29.4479C30.6563 31.25 29.2553 33.1979 28.0834 35.2604V1.85417H112.193V112.146ZM41.797 103.745V89.0677H45.2553V103.745H41.797ZM63.099 103.745V99.2812H66.5574V103.745H63.099ZM73.7553 103.745V89.0677H77.2136V103.745H73.7553ZM84.4063 103.745V82.5104H87.8647V103.745H84.4063ZM95.0574 103.745V74.5H98.5157V103.745H95.0574Z" fill="#3A322B"/>
</g>
</g>
</g>
</svg>
