<svg width="63" height="63" viewBox="0 0 63 63" fill="none" xmlns="http://www.w3.org/2000/svg">
<g id="hugeicons:magic-wand-01">
<path id="Vector" d="M36.5557 33.5422L30.9146 27.9011C30.1481 27.132 29.7623 26.7488 29.3475 26.544C28.9585 26.3503 28.5299 26.2495 28.0954 26.2495C27.6608 26.2495 27.2322 26.3503 26.8432 26.544C26.4285 26.7488 26.0452 27.132 25.2761 27.9011C24.507 28.6702 24.1238 29.0561 23.919 29.4682C23.5253 30.2584 23.5253 31.185 23.919 31.9725C24.1238 32.3873 24.507 32.7731 25.2761 33.5422L30.9172 39.1807M36.5557 33.5422L53.4739 50.4604C54.243 51.2269 54.6263 51.6127 54.831 52.0275C55.2248 52.815 55.2248 53.7416 54.831 54.5318C54.6263 54.9439 54.243 55.3298 53.4739 56.0989C52.7048 56.868 52.3189 57.2513 51.9068 57.456C51.1166 57.8498 50.19 57.8498 49.4025 57.456C48.9877 57.2513 48.6019 56.868 47.8328 56.0989L30.9172 39.1807M36.5557 33.5422L30.9172 39.1807M44.625 5.25L45.3994 7.34212C46.4126 10.0826 46.9219 11.4529 47.9194 12.453C48.9221 13.4531 50.2924 13.9624 53.0329 14.9756L55.125 15.75L53.0329 16.5244C50.2924 17.5376 48.9221 18.0469 47.922 19.0444C46.9219 20.0471 46.4126 21.4174 45.3994 24.1579L44.625 26.25L43.8506 24.1579C42.8374 21.4174 42.3281 20.0471 41.3306 19.047C40.3279 18.0469 38.9576 17.5376 36.2171 16.5244L34.125 15.75L36.2171 14.9756C38.9576 13.9624 40.3279 13.4531 41.328 12.4556C42.3281 11.4529 42.8374 10.0826 43.8506 7.34212L44.625 5.25ZM15.75 10.5L16.3301 12.0671C17.0914 14.1251 17.472 15.1541 18.2201 15.9023C18.9709 16.653 19.9999 17.0336 22.0579 17.7922L23.625 18.375L22.0579 18.9551C19.9999 19.7164 18.9709 20.097 18.2227 20.8451C17.472 21.5959 17.0914 22.6249 16.3328 24.6829L15.75 26.25L15.1699 24.6829C14.4086 22.6249 14.028 21.5959 13.2799 20.8477C12.5291 20.097 11.5001 19.7164 9.44212 18.9578L7.875 18.375L9.44212 17.7949C11.5001 17.0336 12.5291 16.653 13.2773 15.9049C14.028 15.1541 14.4086 14.1251 15.1672 12.0671L15.75 10.5Z" stroke="black" stroke-width="3" stroke-linecap="round" stroke-linejoin="round"/>
</g>
</svg>
