<svg width="53" height="53" viewBox="0 0 53 53" fill="none" xmlns="http://www.w3.org/2000/svg">
<g id="mingcute:cursor-3-fill" clip-path="url(#clip0_114_198)">
<g id="Group">
<path id="Vector" fill-rule="evenodd" clip-rule="evenodd" d="M22.0834 6.62484C22.0834 6.03915 21.8507 5.47745 21.4366 5.06331C21.0225 4.64917 20.4608 4.4165 19.8751 4.4165C19.2894 4.4165 18.7277 4.64917 18.3136 5.06331C17.8994 5.47745 17.6667 6.03915 17.6667 6.62484V11.0415C17.6667 11.6272 17.8994 12.1889 18.3136 12.603C18.7277 13.0172 19.2894 13.2498 19.8751 13.2498C20.4608 13.2498 21.0225 13.0172 21.4366 12.603C21.8507 12.1889 22.0834 11.6272 22.0834 11.0415V6.62484ZM12.0664 8.94359C11.8627 8.73267 11.619 8.56443 11.3496 8.4487C11.0802 8.33296 10.7904 8.27204 10.4972 8.26949C10.204 8.26694 9.91316 8.32282 9.64177 8.43386C9.37037 8.54489 9.12381 8.70887 8.91646 8.91621C8.70911 9.12356 8.54514 9.37013 8.4341 9.64152C8.32306 9.91292 8.26719 10.2037 8.26974 10.4969C8.27228 10.7902 8.3332 11.0799 8.44894 11.3494C8.56468 11.6188 8.73291 11.8625 8.94383 12.0662L12.0664 15.1932C12.2717 15.3985 12.5155 15.5614 12.7838 15.6725C13.052 15.7836 13.3395 15.8408 13.6299 15.8408C13.9203 15.8408 14.2078 15.7836 14.4761 15.6725C14.7443 15.5614 14.9881 15.3985 15.1934 15.1932C15.3987 14.9878 15.5616 14.7441 15.6727 14.4758C15.7838 14.2076 15.841 13.92 15.841 13.6297C15.841 13.3393 15.7838 13.0518 15.6727 12.7835C15.5616 12.5152 15.3987 12.2715 15.1934 12.0662L12.0664 8.94359ZM21.6219 18.1303C19.4621 17.4103 17.4106 19.4619 18.1283 21.6194L25.9303 45.0233C26.7187 47.3907 29.9937 47.5806 31.0515 45.3193L35.5896 35.5893L45.3195 31.0512C47.5808 29.9956 47.3909 26.7185 45.0236 25.9301L21.6219 18.1303ZM30.8063 8.94359C31.2203 9.35771 31.4529 9.91931 31.4529 10.5049C31.4529 11.0904 31.2203 11.652 30.8063 12.0662L27.6837 15.1932C27.4786 15.3983 27.235 15.5611 26.9669 15.6721C26.6988 15.7832 26.4115 15.8403 26.1214 15.8403C25.8312 15.8403 25.5439 15.7832 25.2758 15.6721C25.0077 15.5611 24.7641 15.3983 24.559 15.1932C24.3538 14.988 24.191 14.7444 24.08 14.4763C23.9689 14.2083 23.9118 13.9209 23.9118 13.6308C23.9118 13.3406 23.9689 13.0533 24.08 12.7852C24.191 12.5171 24.3538 12.2736 24.559 12.0684L27.6837 8.9458C28.0979 8.5318 28.6595 8.29923 29.245 8.29923C29.8306 8.29923 30.3922 8.52959 30.8063 8.94359ZM4.41675 19.8748C4.41675 19.2892 4.64941 18.7275 5.06355 18.3133C5.4777 17.8992 6.03939 17.6665 6.62508 17.6665H11.0417C11.6274 17.6665 12.1891 17.8992 12.6033 18.3133C13.0174 18.7275 13.2501 19.2892 13.2501 19.8748C13.2501 20.4605 13.0174 21.0222 12.6033 21.4364C12.1891 21.8505 11.6274 22.0832 11.0417 22.0832H6.62508C6.03939 22.0832 5.4777 21.8505 5.06355 21.4364C4.64941 21.0222 4.41675 20.4605 4.41675 19.8748ZM15.1912 27.6835C15.3964 27.4783 15.5591 27.2347 15.6702 26.9667C15.7812 26.6986 15.8384 26.4113 15.8384 26.1211C15.8384 25.8309 15.7812 25.5436 15.6702 25.2755C15.5591 25.0075 15.3964 24.7639 15.1912 24.5587C14.986 24.3535 14.7424 24.1908 14.4744 24.0797C14.2063 23.9687 13.919 23.9115 13.6288 23.9115C13.3386 23.9115 13.0513 23.9687 12.7832 24.0797C12.5152 24.1908 12.2716 24.3535 12.0664 24.5587L8.94383 27.6835C8.73291 27.8872 8.56468 28.1309 8.44894 28.4003C8.3332 28.6697 8.27228 28.9595 8.26974 29.2527C8.26719 29.546 8.32306 29.8368 8.4341 30.1082C8.54514 30.3795 8.70911 30.6261 8.91646 30.8335C9.12381 31.0408 9.37037 31.2048 9.64177 31.3158C9.91316 31.4269 10.204 31.4827 10.4972 31.4802C10.7904 31.4776 11.0802 31.4167 11.3496 31.301C11.619 31.1852 11.8627 31.017 12.0664 30.8061L15.1912 27.6835Z" fill="black"/>
</g>
</g>
<defs>
<clipPath id="clip0_114_198">
<rect width="53" height="53" fill="white"/>
</clipPath>
</defs>
</svg>
