<svg width="56" height="56" viewBox="0 0 56 56" fill="none" xmlns="http://www.w3.org/2000/svg">
<g id="eos-icons:trusted-organization">
<path id="Vector" d="M44.3334 21C44.3344 18.1881 43.6095 15.4236 42.2288 12.974C40.8481 10.5244 38.8584 8.47276 36.4523 7.01765C34.0462 5.56255 31.3052 4.75326 28.4946 4.66813C25.6839 4.58301 22.899 5.22492 20.4092 6.53175C17.9194 7.83857 15.8092 9.76604 14.2828 12.1276C12.7564 14.4891 11.8655 17.2047 11.6963 20.0115C11.5272 22.8183 12.0855 25.6212 13.3173 28.149C14.5491 30.6767 16.4126 32.8436 18.7274 34.44L11.6668 46.6667L16.9308 46.8837L19.7494 51.3333L27.8367 37.324L28.0001 37.3333C28.0817 37.338 28.1074 37.3263 28.1634 37.324L36.2507 51.3333L39.1254 46.9793L44.3334 46.6667L37.2727 34.44C39.4512 32.9401 41.2321 30.933 42.4622 28.5916C43.6922 26.2502 44.3344 23.6448 44.3334 21ZM16.3334 21C16.3334 18.6925 17.0177 16.4369 18.2996 14.5183C19.5816 12.5998 21.4036 11.1044 23.5354 10.2214C25.6672 9.33838 28.013 9.10734 30.2761 9.5575C32.5392 10.0077 34.618 11.1188 36.2497 12.7504C37.8813 14.382 38.9924 16.4608 39.4426 18.7239C39.8927 20.9871 39.6617 23.3328 38.7787 25.4646C37.8957 27.5964 36.4003 29.4185 34.4817 30.7005C32.5632 31.9824 30.3075 32.6667 28.0001 32.6667C24.9059 32.6667 21.9384 31.4375 19.7505 29.2496C17.5626 27.0617 16.3334 24.0942 16.3334 21Z" fill="black"/>
<path id="Vector_2" d="M28 28C31.866 28 35 24.866 35 21C35 17.134 31.866 14 28 14C24.134 14 21 17.134 21 21C21 24.866 24.134 28 28 28Z" fill="black"/>
</g>
</svg>
