<svg width="89" height="89" viewBox="0 0 89 89" fill="none" xmlns="http://www.w3.org/2000/svg">
<g id="wpf:birthday" clip-path="url(#clip0_28_12781)">
<path id="Vector" d="M17.1154 0C17.1154 0 10.3753 7.42465 10.3753 11.125C10.3768 12.7758 10.9899 14.3675 12.0962 15.5926C13.2026 16.8178 14.7237 17.5896 16.3657 17.7589C15.5794 17.5951 14.8735 17.1652 14.3672 16.5417C13.8609 15.9181 13.5851 15.1391 13.5862 14.3358C13.5862 12.4087 17.1154 8.55769 17.1154 8.55769C17.1154 8.55769 20.6446 12.4052 20.6446 14.3358C20.6446 16.0234 19.4533 17.4337 17.865 17.7589C19.5071 17.5896 21.0282 16.8178 22.1345 15.5926C23.2409 14.3675 23.854 12.7758 23.8554 11.125C23.8554 7.42808 17.1154 0 17.1154 0ZM44.5 0C44.5 0 37.76 7.42465 37.76 11.125C37.7614 12.7758 38.3745 14.3675 39.4808 15.5926C40.5872 16.8178 42.1083 17.5896 43.7503 17.7589C42.964 17.5951 42.2582 17.1652 41.7518 16.5417C41.2455 15.9181 40.9697 15.1391 40.9708 14.3358C40.9708 12.4087 44.5 8.55769 44.5 8.55769C44.5 8.55769 48.0292 12.4052 48.0292 14.3358C48.0292 16.0234 46.838 17.4337 45.2496 17.7589C46.8917 17.5896 48.4128 16.8178 49.5191 15.5926C50.6255 14.3675 51.2386 12.7758 51.24 11.125C51.24 7.42808 44.5 0 44.5 0ZM71.8846 0C71.8846 0 65.1446 7.42465 65.1446 11.125C65.146 12.7758 65.7591 14.3675 66.8655 15.5926C67.9718 16.8178 69.4929 17.5896 71.135 17.7589C70.3486 17.5951 69.6428 17.1652 69.1365 16.5417C68.6301 15.9181 68.3543 15.1391 68.3554 14.3358C68.3554 12.4087 71.8846 8.55769 71.8846 8.55769C71.8846 8.55769 75.4138 12.4052 75.4138 14.3358C75.4138 16.0234 74.2226 17.4337 72.6343 17.7589C74.2763 17.5896 75.7974 16.8178 76.9038 15.5926C78.0101 14.3675 78.6232 12.7758 78.6246 11.125C78.6246 7.42808 71.8846 0 71.8846 0ZM10.3753 19.4705C10.0968 19.4207 9.81069 19.4334 9.53767 19.5078C9.26466 19.5821 9.01156 19.7161 8.79669 19.9002C8.58181 20.0843 8.41051 20.3138 8.29518 20.5722C8.17985 20.8306 8.12336 21.1114 8.1298 21.3942C8.1298 22.6265 10.3753 24.855 10.3753 28.7744V47.817H23.8588V28.456C23.8588 26.0633 26.1044 25.1973 26.1044 23.9615C26.1044 22.7292 26.053 21.3942 22.2534 21.3942C16.6019 21.3942 10.3788 19.467 10.3788 19.467L10.3753 19.4705ZM37.76 19.4705C37.4814 19.4207 37.1953 19.4334 36.9223 19.5078C36.6493 19.5821 36.3962 19.7161 36.1813 19.9002C35.9664 20.0843 35.7951 20.3138 35.6798 20.5722C35.5645 20.8306 35.508 21.1114 35.5144 21.3942C35.5144 22.6265 37.76 24.855 37.76 28.7744V47.817H51.24V28.456C51.24 26.0633 53.4856 25.1973 53.4856 23.9615C53.4856 22.7292 53.4342 21.3942 49.6346 21.3942C43.9831 21.3942 37.76 19.467 37.76 19.467V19.4705ZM65.1446 19.4705C64.866 19.4207 64.5799 19.4334 64.3069 19.5078C64.0339 19.5821 63.7808 19.7161 63.5659 19.9002C63.351 20.0843 63.1797 20.3138 63.0644 20.5722C62.9491 20.8306 62.8926 21.1114 62.899 21.3942C62.899 22.6265 65.1446 24.855 65.1446 28.7744V47.817H78.6246V28.456C78.6246 26.0633 80.8702 25.1973 80.8702 23.9615C80.8702 22.7292 80.8188 21.3942 77.0192 21.3942C71.3677 21.3942 65.1446 19.467 65.1446 19.467V19.4705ZM13.6923 51.3462C8.02369 51.3462 3.42307 55.9468 3.42307 61.6154V82.1538C3.31587 82.1488 3.2085 82.1488 3.1013 82.1538C2.65178 82.175 2.21082 82.2844 1.80359 82.476C1.39637 82.6675 1.03087 82.9374 0.727943 83.2702C0.116163 83.9423 -0.20356 84.83 -0.16089 85.7378C-0.118221 86.6457 0.283345 87.4994 0.955468 88.1112C1.62759 88.7229 2.51521 89.0427 3.42307 89H85.5769C86.4848 89 87.3554 88.6394 87.9974 87.9974C88.6394 87.3555 89 86.4848 89 85.5769C89 84.6691 88.6394 83.7984 87.9974 83.1564C87.3554 82.5145 86.4848 82.1538 85.5769 82.1538V61.6154C85.5769 55.9468 80.9763 51.3462 75.3077 51.3462H13.6923ZM17.1154 65.0385C17.1154 66.8542 17.8367 68.5955 19.1206 69.8794C20.4045 71.1633 22.1458 71.8846 23.9615 71.8846C25.7772 71.8846 27.5186 71.1633 28.8025 69.8794C30.0864 68.5955 30.8077 66.8542 30.8077 65.0385C30.8077 66.8542 31.529 68.5955 32.8129 69.8794C34.0968 71.1633 35.8381 71.8846 37.6538 71.8846C39.4696 71.8846 41.2109 71.1633 42.4948 69.8794C43.7787 68.5955 44.5 66.8542 44.5 65.0385C44.5 66.8542 45.2213 68.5955 46.5052 69.8794C47.7891 71.1633 49.5304 71.8846 51.3461 71.8846C53.1619 71.8846 54.9032 71.1633 56.1871 69.8794C57.471 68.5955 58.1923 66.8542 58.1923 65.0385C58.1923 66.8542 58.9136 68.5955 60.1975 69.8794C61.4814 71.1633 63.2227 71.8846 65.0385 71.8846C66.8542 71.8846 68.5955 71.1633 69.8794 69.8794C71.1633 68.5955 71.8846 66.8542 71.8846 65.0385C71.8846 66.8542 72.6059 68.5955 73.8898 69.8794C75.1737 71.1633 76.915 71.8846 78.7308 71.8846V82.1538H10.2692V71.8846C12.0849 71.8846 13.8263 71.1633 15.1102 69.8794C16.3941 68.5955 17.1154 66.8542 17.1154 65.0385Z" fill="white"/>
</g>
<defs>
<clipPath id="clip0_28_12781">
<rect width="89" height="89" fill="white"/>
</clipPath>
</defs>
</svg>
