<svg width="103" height="103" viewBox="0 0 103 103" fill="none" xmlns="http://www.w3.org/2000/svg">
<g id="hugeicons:time-quarter-pass">
<path id="Vector" d="M35.947 12.8749C35.0257 13.2183 34.123 13.5916 33.2389 13.995M88.9147 69.9584C89.3525 69.0085 89.7559 68.0414 90.125 67.0572M79.3915 83.108C80.1297 82.4214 80.8407 81.7075 81.5245 80.9665M65.5294 91.7214C66.362 91.4067 67.1817 91.0677 67.9886 90.7043M52.1695 94.3908C51.1795 94.4252 50.1867 94.4252 49.1911 94.3908M33.4192 90.7258C34.1974 91.0777 34.9856 91.4038 35.7839 91.7043M20.0549 81.2025C20.6386 81.8234 21.2437 82.4271 21.8703 83.0136M11.2999 67.2289C11.6232 68.0758 11.9709 68.9098 12.3428 69.7309M8.60477 53.6672C8.57673 52.7719 8.57673 51.8759 8.60477 50.9806M11.2656 37.4962C11.5832 36.6579 11.9265 35.8325 12.2956 35.0199M19.982 23.5183C20.6028 22.8545 21.2452 22.2122 21.9089 21.5913M57.9375 51.4999C57.9375 52.7731 57.5599 54.0178 56.8526 55.0764C56.1452 56.135 55.1398 56.9602 53.9635 57.4474C52.7872 57.9346 51.4928 58.0621 50.2441 57.8137C48.9953 57.5653 47.8483 56.9522 46.948 56.0519C46.0477 55.1516 45.4346 54.0046 45.1862 52.7558C44.9378 51.5071 45.0653 50.2127 45.5525 49.0364C46.0397 47.8601 46.8648 46.8547 47.9235 46.1473C48.9821 45.44 50.2268 45.0624 51.5 45.0624M57.9375 51.4999C57.9375 49.7926 57.2592 48.1552 56.052 46.9479C54.8447 45.7407 53.2073 45.0624 51.5 45.0624M57.9375 51.4999H68.6666M51.5 45.0624V25.7499M94.4166 51.4999C94.4166 27.797 75.2028 8.58325 51.5 8.58325" stroke="white" stroke-width="5" stroke-linecap="round" stroke-linejoin="round"/>
</g>
</svg>
