<svg width="126" height="126" viewBox="0 0 126 126" fill="none" xmlns="http://www.w3.org/2000/svg">
<g id="uil:food">
<path id="Vector" d="M44.6775 65.5201C43.6392 65.5201 42.6242 65.828 41.7608 66.4049C40.8974 66.9818 40.2245 67.8017 39.8272 68.761C39.4298 69.7203 39.3258 70.7759 39.5284 71.7943C39.731 72.8127 40.231 73.7482 40.9652 74.4824C41.6995 75.2167 42.6349 75.7167 43.6533 75.9192C44.6717 76.1218 45.7273 76.0178 46.6866 75.6205C47.6459 75.2231 48.4659 74.5502 49.0428 73.6869C49.6196 72.8235 49.9275 71.8085 49.9275 70.7701C49.9275 69.3777 49.3744 68.0424 48.3899 67.0578C47.4053 66.0732 46.0699 65.5201 44.6775 65.5201ZM44.6775 42.0001C43.6392 42.0001 42.6242 42.308 41.7608 42.8849C40.8974 43.4618 40.2245 44.2817 39.8272 45.241C39.4298 46.2003 39.3258 47.2559 39.5284 48.2743C39.731 49.2927 40.231 50.2282 40.9652 50.9624C41.6995 51.6967 42.6349 52.1967 43.6533 52.3992C44.6717 52.6018 45.7273 52.4978 46.6866 52.1005C47.6459 51.7031 48.4659 51.0302 49.0428 50.1669C49.6196 49.3035 49.9275 48.2885 49.9275 47.2501C49.9275 45.8577 49.3744 44.5224 48.3899 43.5378C47.4053 42.5532 46.0699 42.0001 44.6775 42.0001ZM63 52.5001C61.6077 52.5001 60.2723 53.0532 59.2877 54.0378C58.3032 55.0224 57.75 56.3577 57.75 57.7501V63.0001C57.75 64.3925 58.3032 65.7279 59.2877 66.7124C60.2723 67.697 61.6077 68.2501 63 68.2501C64.3924 68.2501 65.7278 67.697 66.7124 66.7124C67.6969 65.7279 68.2501 64.3925 68.2501 63.0001V57.7501C68.2501 56.3577 67.6969 55.0224 66.7124 54.0378C65.7278 53.0532 64.3924 52.5001 63 52.5001ZM107.625 44.9926C105.814 43.9506 103.814 43.2793 101.741 43.0179C99.6675 42.7565 97.5631 42.9102 95.55 43.4701C93.4549 44.0313 91.5039 45.0337 89.8276 46.4101L28.9275 11.1826C28.1294 10.7218 27.2241 10.4792 26.3025 10.4792C25.381 10.4792 24.4756 10.7218 23.6775 11.1826C22.8666 11.6385 22.1913 12.3016 21.7209 13.1041C21.2504 13.9067 21.0016 14.8198 21 15.7501V84.8926C17.9018 85.9377 15.2154 87.9397 13.3283 90.6099C11.4412 93.2802 10.4509 96.4807 10.5 99.7501C10.4986 103.856 12.1002 107.799 14.9636 110.741C17.8271 113.683 21.7261 115.391 25.83 115.5H28.875C46.0779 115.46 62.9638 110.868 77.8183 102.191C92.6728 93.5148 104.967 81.0621 113.453 66.0976C115.412 62.5171 115.906 58.3156 114.828 54.3786C113.751 50.4415 111.187 47.0765 107.678 44.9926H107.625ZM31.5 24.8326L83.4226 54.8101C77.6622 63.4055 69.9614 70.5259 60.942 75.5965C51.9225 80.6671 41.8371 83.5458 31.5 84.0001V24.8326ZM104.318 60.9526C96.5237 74.6849 85.1413 86.0385 71.3894 93.7977C57.6375 101.557 42.0341 105.429 26.25 105C24.8577 105 23.5223 104.447 22.5377 103.462C21.5532 102.478 21 101.143 21 99.7501C20.9959 99.0467 21.1332 98.3496 21.4038 97.7002C21.6744 97.0509 22.0727 96.4625 22.575 95.9701C23.5613 95.0194 24.8802 94.4919 26.25 94.5001H28.9275C42.4081 94.4946 55.6454 90.9096 67.2862 84.1114C78.927 77.3132 88.5539 67.5458 95.1825 55.8076C95.5012 55.2317 95.9367 54.7288 96.4611 54.331C96.9854 53.9332 97.5871 53.6493 98.2275 53.4976C99.5513 53.1343 100.965 53.3039 102.165 53.9701C103.37 54.6176 104.274 55.7095 104.686 57.0135C105.098 58.3176 104.984 59.7308 104.37 60.9526H104.318Z" fill="white"/>
</g>
</svg>
