<svg width="112" height="112" viewBox="0 0 112 112" fill="none" xmlns="http://www.w3.org/2000/svg">
<g id="mingcute:swimming-pool-line">
<g id="Group">
<path id="Vector" fill-rule="evenodd" clip-rule="evenodd" d="M44.3333 23.3333C42.4767 23.3333 40.6963 24.0708 39.3835 25.3836C38.0707 26.6963 37.3333 28.4768 37.3333 30.3333V46.6667H69.9999V30.3333C69.9999 26.0015 71.7207 21.847 74.7838 18.7839C77.8469 15.7208 82.0014 14 86.3333 14C90.6651 14 94.8196 15.7208 97.8827 18.7839C100.946 21.847 102.667 26.0015 102.667 30.3333C102.665 31.5228 102.21 32.6668 101.393 33.5317C100.577 34.3966 99.4608 34.9171 98.2734 34.9868C97.086 35.0565 95.9168 34.6702 95.0047 33.9068C94.0926 33.1433 93.5064 32.0604 93.3659 30.8793L93.3332 30.3333C93.3332 28.4768 92.5957 26.6963 91.283 25.3836C89.9702 24.0708 88.1898 23.3333 86.3333 23.3333C84.4767 23.3333 82.6963 24.0708 81.3835 25.3836C80.0708 26.6963 79.3333 28.4768 79.3333 30.3333V70C79.3301 70.6751 79.1979 71.302 78.9366 71.8807C79.7432 72.3196 80.6614 72.5107 81.5762 72.4302C82.491 72.3497 83.3617 72.0011 84.0793 71.428L90.4166 66.3553C90.8952 65.9723 91.4446 65.6873 92.0333 65.5166C92.6221 65.3459 93.2387 65.2928 93.848 65.3604C94.4573 65.428 95.0473 65.615 95.5843 65.9106C96.1213 66.2062 96.5949 66.6047 96.9779 67.0833C97.3609 67.562 97.6459 68.1113 97.8166 68.7001C97.9873 69.2889 98.0404 69.9055 97.9728 70.5148C97.9052 71.124 97.7183 71.714 97.4226 72.2511C97.127 72.7881 96.7285 73.2616 96.2499 73.6447L89.9126 78.7127C87.5928 80.5688 84.7428 81.6389 81.7746 81.7681C78.8065 81.8973 75.8742 81.0789 73.4019 79.4313L70.7559 77.6673C69.9317 77.1172 68.9537 76.8437 67.9637 76.8865C66.9737 76.9293 66.0229 77.2861 65.2493 77.9053L64.7453 78.3113C62.2629 80.297 59.1787 81.3789 55.9999 81.3789C52.8211 81.3789 49.7369 80.297 47.2546 78.3113L46.7459 77.9053C45.9717 77.2868 45.0207 76.9308 44.0307 76.8889C43.0407 76.8469 42.063 77.1212 41.2393 77.672L38.6026 79.4313C36.1299 81.08 33.1967 81.899 30.2275 81.7698C27.2584 81.6406 24.4074 80.5699 22.0873 78.7127L15.7499 73.6447C14.7833 72.8711 14.1635 71.7453 14.027 70.5148C13.8905 69.2843 14.2484 68.05 15.0219 67.0833C15.7955 66.1167 16.9213 65.497 18.1518 65.3604C19.3823 65.2239 20.6166 65.5818 21.5833 66.3553L27.9999 71.4933V30.3333C27.9999 28.1884 28.4224 26.0645 29.2432 24.0828C30.064 22.1012 31.2672 20.3006 32.7838 18.7839C34.3005 17.2672 36.1011 16.0641 38.0828 15.2433C40.0644 14.4225 42.1883 14 44.3333 14C46.4782 14 48.6021 14.4225 50.5837 15.2433C52.5654 16.0641 54.366 17.2672 55.8827 18.7839C57.3994 20.3006 58.6025 22.1012 59.4233 24.0828C60.2441 26.0645 60.6666 28.1884 60.6666 30.3333C60.6653 31.5228 60.2098 32.6668 59.3933 33.5317C58.5768 34.3966 57.4608 34.9171 56.2734 34.9868C55.086 35.0565 53.9168 34.6702 53.0047 33.9068C52.0926 33.1433 51.5064 32.0604 51.3659 30.8793L51.3333 30.3333C51.3333 28.4768 50.5958 26.6963 49.283 25.3836C47.9702 24.0708 46.1898 23.3333 44.3333 23.3333ZM69.9999 67.6713V56H37.3333V69.1507C39.7426 67.8881 42.4676 67.3548 45.1751 67.6158C47.8827 67.8769 50.4555 68.921 52.5793 70.6207L53.0833 71.0267C53.9109 71.6894 54.9396 72.0504 55.9999 72.0504C57.0602 72.0504 58.0889 71.6894 58.9166 71.0267L59.4206 70.6207C60.8938 69.4405 62.5904 68.5705 64.4085 68.0628C66.2265 67.5552 68.1284 67.4204 69.9999 67.6667V67.6713ZM84.0793 90.0947C83.3051 90.7132 82.3541 91.0692 81.364 91.1111C80.374 91.1531 79.3963 90.8788 78.5726 90.328L75.9359 88.5687C73.4632 86.92 70.53 86.101 67.5609 86.2302C64.5917 86.3594 61.7407 87.4301 59.4206 89.2873L58.9166 89.6933C58.0889 90.356 57.0602 90.7171 55.9999 90.7171C54.9396 90.7171 53.9109 90.356 53.0833 89.6933L52.5793 89.2873C50.2595 87.4312 47.4094 86.3611 44.4413 86.2319C41.4731 86.1027 38.5408 86.9211 36.0686 88.5687L33.4226 90.3327C32.5984 90.8828 31.6204 91.1563 30.6304 91.1135C29.6403 91.0707 28.6896 90.7139 27.9159 90.0947L21.5833 85.022C20.6166 84.2485 19.3823 83.8906 18.1518 84.0271C16.9213 84.1636 15.7955 84.7834 15.0219 85.75C14.2484 86.7166 13.8905 87.951 14.027 89.1814C14.1635 90.4119 14.7833 91.5378 15.7499 92.3113L22.0873 97.3793C24.4074 99.2366 27.2584 100.307 30.2275 100.436C33.1967 100.566 36.1299 99.7467 38.6026 98.098L41.2439 96.334C42.0681 95.7839 43.0461 95.5104 44.0361 95.5532C45.0262 95.596 45.9769 95.9528 46.7506 96.572L47.2546 96.978C49.7369 98.9637 52.8211 100.046 55.9999 100.046C59.1787 100.046 62.2629 98.9637 64.7453 96.978L65.2539 96.572C66.0281 95.9535 66.9791 95.5975 67.9691 95.5555C68.9592 95.5136 69.9368 95.7879 70.7606 96.3387L73.4019 98.098C75.8742 99.7456 78.8065 100.564 81.7746 100.435C84.7428 100.306 87.5928 99.2355 89.9126 97.3793L96.2499 92.3113C96.7285 91.9283 97.127 91.4548 97.4226 90.9177C97.7183 90.3807 97.9052 89.7907 97.9728 89.1814C98.0404 88.5722 97.9873 87.9555 97.8166 87.3668C97.6459 86.778 97.3609 86.2286 96.9779 85.75C96.5949 85.2714 96.1213 84.8729 95.5843 84.5773C95.0473 84.2816 94.4573 84.0947 93.848 84.0271C93.2387 83.9595 92.6221 84.0126 92.0333 84.1833C91.4446 84.354 90.8952 84.639 90.4166 85.022L84.0793 90.0947Z" fill="white"/>
</g>
</g>
</svg>
