<svg width="136" height="136" viewBox="0 0 136 136" fill="none" xmlns="http://www.w3.org/2000/svg">
<g id="fluent-emoji-high-contrast:woman-feeding-baby">
<g id="Group">
<path id="Vector" d="M76.2024 36.3373C75.9899 36.3798 75.7775 36.3798 75.565 36.2948L75.5479 36.2906L75.5055 36.2778C75.0295 36.1333 71.6677 35.1091 68.3825 36.3373C68.2322 36.3979 68.0711 36.4272 67.9092 36.4234C67.7472 36.4196 67.5877 36.3827 67.4405 36.315C67.2932 36.2474 67.1614 36.1504 67.0529 36.03C66.9445 35.9096 66.8618 35.7683 66.8099 35.6148C66.5549 34.9773 66.895 34.2548 67.5324 34.0423C71.6635 32.5166 75.7605 33.7958 76.347 33.9786L76.3895 33.9913L76.4149 33.9998C77.0524 34.2123 77.3924 34.9348 77.1374 35.5723C77.0099 35.9548 76.6274 36.2523 76.2024 36.3373ZM44.1149 41.9898C43.6899 42.0748 43.2225 41.9048 42.925 41.5648C42.5 41.0548 42.585 40.2473 43.095 39.8223L43.1289 39.7926C43.5454 39.4653 46.9794 36.7623 51.4674 36.8006C51.7943 36.8006 52.1078 36.9304 52.339 37.1615C52.5701 37.3927 52.6999 37.7062 52.6999 38.0331C52.6999 38.3599 52.5701 38.6734 52.339 38.9046C52.1078 39.1357 51.7943 39.2656 51.4674 39.2656C48.0462 39.2656 45.322 41.2461 44.7992 41.6286L44.71 41.6881C44.4975 41.8581 44.3274 41.9431 44.1149 41.9856M58.7349 54.3148L59.7125 46.4523C59.9674 44.7098 62.2624 44.3273 63.07 45.8998L66.6824 52.9123C67.4049 54.3573 66.5549 56.0998 64.9399 56.3973L61.5399 56.9923C61.1682 57.0581 60.7861 57.0355 60.4247 56.9263C60.0633 56.8171 59.7327 56.6244 59.4596 56.3637C59.1865 56.103 58.9786 55.7817 58.8527 55.4257C58.7268 55.0698 58.6865 54.6892 58.7349 54.3148ZM64.0899 60.6898C61.5399 61.1573 59.0324 60.9448 56.8224 60.2223C56.0574 59.9673 55.4625 60.9023 56.0149 61.4973C58.1824 63.8348 61.4124 65.0248 64.7699 64.4298C68.1274 63.8348 70.7625 61.5823 71.995 58.6923C72.2924 57.9698 71.4424 57.2898 70.8049 57.7998C68.9349 59.2023 66.6399 60.2223 64.0899 60.6898ZM75.5224 43.4773C75.1824 43.5198 74.9274 43.7323 74.7149 44.0298C74.0349 45.1348 72.9299 45.9423 71.57 46.1973C70.2099 46.4523 68.8924 46.0698 67.9149 45.2198C67.649 45.0151 67.313 44.9234 66.9799 44.9648C66.0449 45.1348 65.705 46.3248 66.4699 46.9623C67.9575 48.1948 69.955 48.7898 71.995 48.4073C74.035 48.0673 75.6924 46.8348 76.7124 45.1348C76.819 44.9482 76.8698 44.7348 76.8586 44.5202C76.8475 44.3055 76.7749 44.0986 76.6496 43.924C76.5242 43.7494 76.3514 43.6145 76.1515 43.5353C75.9517 43.4561 75.7334 43.436 75.5224 43.4773ZM55.0799 47.5148C55.2467 47.2235 55.5216 47.0097 55.8449 46.9198C56.8224 46.7923 57.5449 47.8123 57.0774 48.6198C56.0575 50.3198 54.3999 51.5523 52.3599 51.8923C50.3199 52.2748 48.3225 51.6798 46.835 50.4473C46.07 49.8098 46.41 48.6198 47.3449 48.4498C47.6849 48.3648 48.0249 48.4923 48.2799 48.7048C49.2574 49.5123 50.6174 49.8948 51.9349 49.6823C53.2949 49.4273 54.3999 48.6198 55.0799 47.5148Z" fill="white"/>
<path id="Vector_2" d="M95.71 41.3524C96.0925 43.6899 95.965 45.9849 95.37 48.1099C95.2 48.8324 95.3275 49.5974 95.7525 50.1499C97.0275 51.8924 97.92 53.9749 98.345 56.2699C98.9173 59.465 98.4256 62.7595 96.9455 65.6484C95.4654 68.5372 93.0786 70.8607 90.151 72.2626C92.4347 73.6113 94.5767 75.1385 96.577 76.8441C99.8383 76.5314 103.127 77.0089 106.165 78.236C109.202 79.4631 111.9 81.4038 114.029 83.8939C116.158 86.384 117.656 89.3503 118.396 92.5419C119.137 95.7334 119.097 99.0563 118.282 102.229L122.566 107.478C124.674 109.688 125.885 112.91 125.885 116.152C125.885 122.442 120.785 127.5 114.495 127.5H80.9795C80.7617 127.517 80.5428 127.517 80.325 127.5H8.5L20.5275 90.0999C21.2155 87.8814 22.4983 85.8938 24.2367 84.3533C25.975 82.8128 28.1024 81.7781 30.3875 81.3619L33.456 75.4119C31.7307 73.3974 30.5823 70.9538 30.1325 68.3399C29.75 66.0449 29.8775 63.7924 30.4725 61.7099C30.685 60.9874 30.5575 60.2224 30.1325 59.6274C28.815 57.7999 27.9225 55.7174 27.4975 53.3799C26.945 50.3199 27.37 47.3024 28.5175 44.6674C29.665 42.0324 30.005 39.0574 29.495 36.2099V36.1674C28.05 27.8799 33.575 20.0174 41.905 18.5724C42.7125 18.4449 43.435 17.9349 43.775 17.1699C44.811 14.9868 46.3549 13.0835 48.2773 11.6195C50.1998 10.1554 52.445 9.17318 54.825 8.75489C57.2038 8.3335 59.6489 8.48788 61.9559 9.20509C64.2628 9.92231 66.3644 11.1815 68.085 12.8774C68.68 13.4724 69.53 13.6849 70.3375 13.5574C78.5825 12.1124 86.4875 17.6374 87.9325 25.8824V25.9249C88.4425 28.7724 89.76 31.4074 91.7575 33.5324C93.755 35.6149 95.1575 38.2924 95.71 41.3524ZM66.98 95.4124L56.6525 101.362C47.9825 106.335 45.05 117.427 50.0225 126.055L50.4688 126.777L50.915 127.5H57.4175C56.243 127.432 55.1403 126.912 54.3407 126.049C53.5412 125.186 53.1069 124.047 53.1288 122.871C53.1508 121.694 53.6274 120.572 54.4587 119.74C55.2899 118.907 56.4112 118.429 57.5875 118.405H68.51C68.935 118.405 69.105 117.895 68.85 117.64L67.745 116.535C65.96 114.75 65.96 111.86 67.745 110.117C69.53 108.332 72.42 108.332 74.1625 110.117L80.4907 116.45C80.8493 114.347 81.9932 112.459 83.691 111.167C80.1033 107.385 78.1069 102.368 78.115 97.1549C78.1178 95.7864 78.2482 94.4576 78.506 93.1684C74.5212 92.6085 70.4637 93.3985 66.98 95.4124ZM88.0387 109.442L112.574 105.107C114.081 102.441 114.799 99.4012 114.645 96.3426C114.49 93.2841 113.469 90.3326 111.7 87.8323C109.932 85.3321 107.489 83.3863 104.656 82.2217C101.824 81.0572 98.7187 80.722 95.703 81.2553C92.6874 81.7885 89.8854 83.1683 87.6241 85.2335C85.3628 87.2987 83.7353 89.9643 82.9314 92.9194C82.1276 95.8745 82.1805 98.9972 83.0841 101.923C83.9876 104.85 85.7045 107.458 88.0345 109.446M66.759 74.4386L66.912 74.4089C78.5698 72.0756 86.5853 61.9479 84.9108 49.3041L83.1257 35.5766C81.9782 29.5416 77.6858 29.8816 76.8783 30.0091L62.4282 32.5591C56.6908 33.5791 50.8682 31.7091 46.7882 27.5441C46.6347 27.3904 46.4426 27.2807 46.2322 27.2267C46.0217 27.1727 45.8005 27.1763 45.5919 27.2371C45.3833 27.298 45.1949 27.4138 45.0465 27.5725C44.8981 27.7312 44.795 27.9269 44.7483 28.1391L44.5358 29.0316C43.9609 31.6675 42.3933 33.9808 40.1583 35.4916C40.0639 35.5797 39.9598 35.6567 39.848 35.7211L39.7332 35.7891C38.7558 36.5116 36.5457 38.5941 37.2257 42.8866L40.3707 57.1666C41.2207 61.0469 42.874 64.3746 45.1053 67.0649C46.2669 66.9969 47.5079 67.0536 48.8283 67.2349C48.8283 67.2349 51.4208 67.5749 51.6758 67.6174L58.7308 68.5949C60.5158 68.8499 61.7907 70.5074 61.5358 72.2924C61.4143 73.1522 60.959 73.9295 60.2686 74.4561C59.5781 74.9827 58.7081 75.2161 57.8467 75.1059C58.416 75.475 58.8545 76.014 59.1002 76.6464C59.3458 77.2788 59.3861 77.9725 59.2152 78.6291C59.0196 79.4146 58.5411 80.1003 57.8715 80.5551C57.2018 81.0099 56.388 81.2018 55.5858 81.0941L48.9557 80.1634L48.9983 80.1974L53.2057 83.5974C53.5995 83.9192 53.9139 84.3273 54.1247 84.7902C54.3355 85.253 54.4369 85.7581 54.4212 86.2664C54.3986 86.9801 54.1517 87.6686 53.7158 88.2341C53.4123 88.6035 53.0343 88.9047 52.6065 89.1181L59.0708 90.8691H59.1558C59.6692 91.0035 60.2042 91.0354 60.73 90.9628C61.2558 90.8903 61.7621 90.7148 62.22 90.4464C62.6779 90.1779 63.0784 89.8219 63.3985 89.3985C63.7187 88.9752 63.9522 88.4928 64.0858 87.9791L66.9757 77.1841C67.0211 77.0141 67.0565 76.8456 67.082 76.6784C67.19 75.9163 67.078 75.1392 66.759 74.4386ZM66.1258 88.0641V88.0769L66.8908 88.2766C67.5708 88.4466 68.3357 88.2341 68.8032 87.6816L69.9082 86.4491C70.1632 86.1516 70.5458 86.0666 70.8858 86.1516L71.7783 86.4066C72.8832 86.7041 73.9883 86.0666 74.2858 84.9616C74.3582 84.7021 74.3781 84.4307 74.3444 84.1634C74.3107 83.896 74.2241 83.6381 74.0896 83.4046C73.955 83.1711 73.7753 82.9668 73.5609 82.8036C73.3464 82.6404 73.1016 82.5216 72.8408 82.4541L71.9483 82.1991C71.7762 82.165 71.6171 82.0831 71.4894 81.9629C71.3616 81.8426 71.2703 81.6889 71.2258 81.5191L70.8858 79.9041C70.8175 79.5599 70.6537 79.2419 70.4132 78.9864C70.1727 78.7308 69.8652 78.5481 69.5257 78.4591L68.765 78.2594L66.1258 88.0641Z" fill="white"/>
</g>
</g>
</svg>
