<svg width="151" height="151" viewBox="0 0 151 151" fill="none" xmlns="http://www.w3.org/2000/svg">
<g id="arcticons:emoji-couple-with-heart">
<path id="Vector" d="M60.8466 79.9355C60.8466 91.8803 53.3344 101.705 44.0857 101.705C34.8369 101.705 27.3184 91.8803 27.3184 79.9355V78.5891" stroke="white" stroke-width="5" stroke-linecap="round" stroke-linejoin="round"/>
<path id="Vector_2" d="M125.286 108.833C126.938 107.027 128.643 105.168 129.634 104.014C133.874 99.2007 134.837 92.456 132.333 86.4852C128.863 78.3973 127.9 78.3973 127.321 67.9971C127.133 62.0263 122.508 57.0182 116.531 56.4393C116.531 56.4393 112.873 52.01 104.97 52.01C95.7215 52.01 87.2435 57.0182 85.1263 64.9142C82.8142 73.0053 85.5101 76.277 83.198 82.4428C80.502 89.3762 75.8776 95.5389 81.6565 104.206C82.1787 105.064 84.4406 107.345 86.1141 109.176M23.2761 69.5386C24.4306 52.7807 37.1492 52.5888 43.5038 53.5515C44.0858 53.7434 45.8192 53.5515 46.398 53.5515C57.9589 52.01 63.7378 65.1061 63.7378 70.885C63.7378 73.0053 63.7378 78.2054 60.8468 81.0932C60.8468 81.0932 54.2972 73.0053 53.9102 68.3841C53.9102 68.3841 31.946 76.6639 30.4046 69.5386C30.4046 69.5386 28.8631 75.3143 27.5136 76.8558V82.6347C27.5136 82.6347 22.6941 76.8527 23.2761 69.5386Z" stroke="white" stroke-width="5" stroke-linecap="round" stroke-linejoin="round"/>
<path id="Vector_3" d="M78.7641 123V118.693C78.7641 111.764 85.9048 106.144 93.0455 106.144C101.538 113.073 110.031 113.073 118.715 106.144C125.856 106.144 133 111.76 133 118.693V123M17 123V118.693C17 111.764 24.1407 106.144 31.2814 106.144C39.774 113.073 48.2665 113.073 56.9545 106.144C64.0952 106.144 71.2359 111.76 71.2359 118.693V123M89.7651 80.8593C89.7651 92.0958 97.1012 100.524 105.786 100.524C114.471 100.524 121.804 92.0958 121.804 80.8563C121.804 73.7405 118.911 69.6198 113.119 64C107.33 69.6198 89.9573 76.7355 89.9573 79.5469L89.7651 80.8593Z" stroke="white" stroke-width="5" stroke-linecap="round" stroke-linejoin="round"/>
<path id="Vector_4" d="M101.887 91.6886C103.132 92.3539 104.522 92.702 105.934 92.702C107.346 92.702 108.736 92.3539 109.981 91.6886M40.232 92.2674C41.4768 92.9322 42.8663 93.2799 44.2775 93.2799C45.6887 93.2799 47.0782 92.9322 48.3231 92.2674M78.9603 124.622H133.1M17.302 124.622H71.4449M114.027 80.7096C114.027 82.2511 112.872 83.4056 111.331 83.4056C109.789 83.4056 108.632 82.2479 108.632 80.7096C108.632 79.1713 109.789 78.0136 111.331 78.0136C112.872 78.0136 114.027 79.1682 114.027 80.7096ZM103.237 80.7096C103.237 82.2511 102.082 83.4056 100.541 83.4056C98.9993 83.4056 97.8416 82.2479 97.8416 80.7096C97.8416 79.1713 98.9993 78.0136 100.541 78.0136C102.082 78.0136 103.237 79.1682 103.237 80.7096ZM52.3686 81.0934C52.3686 82.6349 51.2141 83.7894 49.6726 83.7894C48.1312 83.7894 46.9735 82.6349 46.9735 81.0934C46.9735 79.5519 48.1312 78.3974 49.6726 78.3974C51.2141 78.3974 52.3686 79.747 52.3686 81.0934ZM41.5784 81.0934C41.5784 82.6349 40.4239 83.7894 38.8824 83.7894C37.341 83.7894 36.1833 82.6349 36.1833 81.0934C36.1833 79.5519 37.341 78.3974 38.8824 78.3974C40.4239 78.3974 41.5784 79.747 41.5784 81.0934ZM94.3277 36.5232C94.3277 33.8325 93.2588 31.252 91.3562 29.3494C89.4536 27.4468 86.8731 26.3779 84.1824 26.3779C82.4333 26.3791 80.7143 26.8332 79.1927 27.6959C77.6711 28.5587 76.3989 29.8007 75.4999 31.3012C74.6005 29.8013 73.3281 28.5599 71.8066 27.6977C70.2851 26.8355 68.5663 26.3819 66.8174 26.3811C64.1267 26.3811 61.5462 27.45 59.6436 29.3526C57.741 31.2552 56.6721 33.8357 56.6721 36.5264C56.6721 37.8067 56.9206 39.0273 57.3516 40.1567C60.7082 49.7987 75.4999 60.3875 75.4999 60.3875C75.4999 60.3875 90.2916 49.7987 93.6482 40.1535C94.0967 38.9957 94.3271 37.7649 94.3277 36.5232Z" stroke="white" stroke-width="3" stroke-linecap="round" stroke-linejoin="round"/>
</g>
</svg>
